<?xml version="1.0" encoding="UTF-8" standalone="no"?>
<!DOCTYPE svg PUBLIC "-//W3C//DTD SVG 1.1//EN"
 "http://www.w3.org/Graphics/SVG/1.1/DTD/svg11.dtd">
<!-- Generated by graphviz version 8.1.0 (20230707.0739)
 -->
<!-- Title: G Pages: 1 -->
<svg width="1240pt" height="1577pt"
 viewBox="0.00 0.00 1239.95 1576.70" xmlns="http://www.w3.org/2000/svg" xmlns:xlink="http://www.w3.org/1999/xlink">
<g id="graph0" class="graph" transform="scale(1 1) rotate(0) translate(21.6 1555.1)">
<title>G</title>
<polygon fill="#111111" stroke="none" points="-21.6,21.6 -21.6,-1555.1 1218.35,-1555.1 1218.35,21.6 -21.6,21.6"/>
<!-- __mocks__/mongodb/index.ts -->
<g id="node1" class="node">
<title>__mocks__/mongodb/index.ts</title>
<path fill="none" stroke="#cfffac" d="M245.96,-99.5C245.96,-99.5 54.29,-99.5 54.29,-99.5 50.21,-99.5 46.12,-95.42 46.12,-91.33 46.12,-91.33 46.12,-83.17 46.12,-83.17 46.12,-79.08 50.21,-75 54.29,-75 54.29,-75 245.96,-75 245.96,-75 250.04,-75 254.12,-79.08 254.12,-83.17 254.12,-83.17 254.12,-91.33 254.12,-91.33 254.12,-95.42 250.04,-99.5 245.96,-99.5"/>
<text text-anchor="middle" x="150.12" y="-82.2" font-family="Arial" font-size="14.00" fill="#cfffac">__mocks__/mongodb/index.ts</text>
</g>
<!-- app/api/check/route.test.ts -->
<g id="node2" class="node">
<title>app/api/check/route.test.ts</title>
<path fill="none" stroke="#c6c5fe" d="M531.96,-268.5C531.96,-268.5 366.54,-268.5 366.54,-268.5 362.46,-268.5 358.38,-264.42 358.38,-260.33 358.38,-260.33 358.38,-252.17 358.38,-252.17 358.38,-248.08 362.46,-244 366.54,-244 366.54,-244 531.96,-244 531.96,-244 536.04,-244 540.12,-248.08 540.12,-252.17 540.12,-252.17 540.12,-260.33 540.12,-260.33 540.12,-264.42 536.04,-268.5 531.96,-268.5"/>
<text text-anchor="middle" x="449.25" y="-251.2" font-family="Arial" font-size="14.00" fill="#c6c5fe">app/api/check/route.test.ts</text>
</g>
<!-- app/api/check/route.ts -->
<g id="node3" class="node">
<title>app/api/check/route.ts</title>
<path fill="none" stroke="#c6c5fe" d="M763.58,-268.5C763.58,-268.5 625.17,-268.5 625.17,-268.5 621.08,-268.5 617,-264.42 617,-260.33 617,-260.33 617,-252.17 617,-252.17 617,-248.08 621.08,-244 625.17,-244 625.17,-244 763.58,-244 763.58,-244 767.67,-244 771.75,-248.08 771.75,-252.17 771.75,-252.17 771.75,-260.33 771.75,-260.33 771.75,-264.42 767.67,-268.5 763.58,-268.5"/>
<text text-anchor="middle" x="694.38" y="-251.2" font-family="Arial" font-size="14.00" fill="#c6c5fe">app/api/check/route.ts</text>
</g>
<!-- app/api/check/route.test.ts&#45;&gt;app/api/check/route.ts -->
<g id="edge1" class="edge">
<title>app/api/check/route.test.ts&#45;&gt;app/api/check/route.ts</title>
<path fill="none" stroke="#757575" d="M540.44,-256.25C561.72,-256.25 584.39,-256.25 605.58,-256.25"/>
<polygon fill="#757575" stroke="#757575" points="605.5,-259.75 615.5,-256.25 605.5,-252.75 605.5,-259.75"/>
</g>
<!-- schemas/session.ts -->
<g id="node4" class="node">
<title>schemas/session.ts</title>
<path fill="none" stroke="#cfffac" d="M996.33,-190.5C996.33,-190.5 870.67,-190.5 870.67,-190.5 866.58,-190.5 862.5,-186.42 862.5,-182.33 862.5,-182.33 862.5,-174.17 862.5,-174.17 862.5,-170.08 866.58,-166 870.67,-166 870.67,-166 996.33,-166 996.33,-166 1000.42,-166 1004.5,-170.08 1004.5,-174.17 1004.5,-174.17 1004.5,-182.33 1004.5,-182.33 1004.5,-186.42 1000.42,-190.5 996.33,-190.5"/>
<text text-anchor="middle" x="933.5" y="-173.2" font-family="Arial" font-size="14.00" fill="#cfffac">schemas/session.ts</text>
</g>
<!-- app/api/check/route.ts&#45;&gt;schemas/session.ts -->
<g id="edge2" class="edge">
<title>app/api/check/route.ts&#45;&gt;schemas/session.ts</title>
<path fill="none" stroke="#757575" d="M756.38,-243.56C767.8,-240.78 779.57,-237.65 790.5,-234.25 826.33,-223.11 865.98,-207.16 894.25,-195.13"/>
<polygon fill="#757575" stroke="#757575" points="895.31,-198.05 903.12,-190.89 892.55,-191.62 895.31,-198.05"/>
</g>
<!-- schemas/user.ts -->
<g id="node5" class="node">
<title>schemas/user.ts</title>
<path fill="none" stroke="#cfffac" d="M1188.58,-230.5C1188.58,-230.5 1084.67,-230.5 1084.67,-230.5 1080.58,-230.5 1076.5,-226.42 1076.5,-222.33 1076.5,-222.33 1076.5,-214.17 1076.5,-214.17 1076.5,-210.08 1080.58,-206 1084.67,-206 1084.67,-206 1188.58,-206 1188.58,-206 1192.67,-206 1196.75,-210.08 1196.75,-214.17 1196.75,-214.17 1196.75,-222.33 1196.75,-222.33 1196.75,-226.42 1192.67,-230.5 1188.58,-230.5"/>
<text text-anchor="middle" x="1136.62" y="-213.2" font-family="Arial" font-size="14.00" fill="#cfffac">schemas/user.ts</text>
</g>
<!-- app/api/check/route.ts&#45;&gt;schemas/user.ts -->
<g id="edge3" class="edge">
<title>app/api/check/route.ts&#45;&gt;schemas/user.ts</title>
<path fill="none" stroke="#757575" d="M772.23,-251.57C842.24,-247.05 948.43,-239.52 1040.5,-230.25 1048.5,-229.44 1056.87,-228.52 1065.19,-227.54"/>
<polygon fill="#757575" stroke="#757575" points="1065.54,-230.9 1075.05,-226.23 1064.71,-223.95 1065.54,-230.9"/>
</g>
<!-- app/api/login/route.test.ts -->
<g id="node6" class="node">
<title>app/api/login/route.test.ts</title>
<path fill="none" stroke="#c6c5fe" d="M528.21,-225.5C528.21,-225.5 370.29,-225.5 370.29,-225.5 366.21,-225.5 362.12,-221.42 362.12,-217.33 362.12,-217.33 362.12,-209.17 362.12,-209.17 362.12,-205.08 366.21,-201 370.29,-201 370.29,-201 528.21,-201 528.21,-201 532.29,-201 536.38,-205.08 536.38,-209.17 536.38,-209.17 536.38,-217.33 536.38,-217.33 536.38,-221.42 532.29,-225.5 528.21,-225.5"/>
<text text-anchor="middle" x="449.25" y="-208.2" font-family="Arial" font-size="14.00" fill="#c6c5fe">app/api/login/route.test.ts</text>
</g>
<!-- app/api/login/route.ts -->
<g id="node7" class="node">
<title>app/api/login/route.ts</title>
<path fill="none" stroke="#c6c5fe" d="M759.83,-225.5C759.83,-225.5 628.92,-225.5 628.92,-225.5 624.83,-225.5 620.75,-221.42 620.75,-217.33 620.75,-217.33 620.75,-209.17 620.75,-209.17 620.75,-205.08 624.83,-201 628.92,-201 628.92,-201 759.83,-201 759.83,-201 763.92,-201 768,-205.08 768,-209.17 768,-209.17 768,-217.33 768,-217.33 768,-221.42 763.92,-225.5 759.83,-225.5"/>
<text text-anchor="middle" x="694.38" y="-208.2" font-family="Arial" font-size="14.00" fill="#c6c5fe">app/api/login/route.ts</text>
</g>
<!-- app/api/login/route.test.ts&#45;&gt;app/api/login/route.ts -->
<g id="edge4" class="edge">
<title>app/api/login/route.test.ts&#45;&gt;app/api/login/route.ts</title>
<path fill="none" stroke="#757575" d="M536.65,-213.25C560.44,-213.25 586.2,-213.25 609.82,-213.25"/>
<polygon fill="#757575" stroke="#757575" points="609.51,-216.75 619.51,-213.25 609.51,-209.75 609.51,-216.75"/>
</g>
<!-- app/api/login/route.ts&#45;&gt;schemas/session.ts -->
<g id="edge5" class="edge">
<title>app/api/login/route.ts&#45;&gt;schemas/session.ts</title>
<path fill="none" stroke="#757575" d="M768.46,-202.46C794.76,-198.58 824.6,-194.18 851.54,-190.2"/>
<polygon fill="#757575" stroke="#757575" points="851.72,-193.56 861.1,-188.64 850.69,-186.64 851.72,-193.56"/>
</g>
<!-- app/api/login/route.ts&#45;&gt;schemas/user.ts -->
<g id="edge6" class="edge">
<title>app/api/login/route.ts&#45;&gt;schemas/user.ts</title>
<path fill="none" stroke="#757575" d="M768.07,-214.08C850.58,-215.01 984.23,-216.53 1065.61,-217.45"/>
<polygon fill="#757575" stroke="#757575" points="1065.2,-220.96 1075.24,-217.58 1065.28,-213.96 1065.2,-220.96"/>
</g>
<!-- app/api/logout/route.test.ts -->
<g id="node8" class="node">
<title>app/api/logout/route.test.ts</title>
<path fill="none" stroke="#c6c5fe" d="M233.58,-354.5C233.58,-354.5 66.67,-354.5 66.67,-354.5 62.58,-354.5 58.5,-350.42 58.5,-346.33 58.5,-346.33 58.5,-338.17 58.5,-338.17 58.5,-334.08 62.58,-330 66.67,-330 66.67,-330 233.58,-330 233.58,-330 237.67,-330 241.75,-334.08 241.75,-338.17 241.75,-338.17 241.75,-346.33 241.75,-346.33 241.75,-350.42 237.67,-354.5 233.58,-354.5"/>
<text text-anchor="middle" x="150.12" y="-337.2" font-family="Arial" font-size="14.00" fill="#c6c5fe">app/api/logout/route.test.ts</text>
</g>
<!-- app/api/logout/route.ts -->
<g id="node9" class="node">
<title>app/api/logout/route.ts</title>
<path fill="none" stroke="#cfffac" d="M519.21,-354.5C519.21,-354.5 379.29,-354.5 379.29,-354.5 375.21,-354.5 371.12,-350.42 371.12,-346.33 371.12,-346.33 371.12,-338.17 371.12,-338.17 371.12,-334.08 375.21,-330 379.29,-330 379.29,-330 519.21,-330 519.21,-330 523.29,-330 527.38,-334.08 527.38,-338.17 527.38,-338.17 527.38,-346.33 527.38,-346.33 527.38,-350.42 523.29,-354.5 519.21,-354.5"/>
<text text-anchor="middle" x="449.25" y="-337.2" font-family="Arial" font-size="14.00" fill="#cfffac">app/api/logout/route.ts</text>
</g>
<!-- app/api/logout/route.test.ts&#45;&gt;app/api/logout/route.ts -->
<g id="edge7" class="edge">
<title>app/api/logout/route.test.ts&#45;&gt;app/api/logout/route.ts</title>
<path fill="none" stroke="#757575" d="M241.89,-342.25C279.48,-342.25 322.92,-342.25 360.21,-342.25"/>
<polygon fill="#757575" stroke="#757575" points="360.07,-345.75 370.07,-342.25 360.07,-338.75 360.07,-345.75"/>
</g>
<!-- app/api/post/get.test.ts -->
<g id="node10" class="node">
<title>app/api/post/get.test.ts</title>
<path fill="none" stroke="#c6c5fe" d="M221.96,-142.5C221.96,-142.5 78.29,-142.5 78.29,-142.5 74.21,-142.5 70.12,-138.42 70.12,-134.33 70.12,-134.33 70.12,-126.17 70.12,-126.17 70.12,-122.08 74.21,-118 78.29,-118 78.29,-118 221.96,-118 221.96,-118 226.04,-118 230.12,-122.08 230.12,-126.17 230.12,-126.17 230.12,-134.33 230.12,-134.33 230.12,-138.42 226.04,-142.5 221.96,-142.5"/>
<text text-anchor="middle" x="150.12" y="-125.2" font-family="Arial" font-size="14.00" fill="#c6c5fe">app/api/post/get.test.ts</text>
</g>
<!-- app/api/post/route.ts -->
<g id="node11" class="node">
<title>app/api/post/route.ts</title>
<path fill="none" stroke="#c6c5fe" d="M513.58,-145.5C513.58,-145.5 384.92,-145.5 384.92,-145.5 380.83,-145.5 376.75,-141.42 376.75,-137.33 376.75,-137.33 376.75,-129.17 376.75,-129.17 376.75,-125.08 380.83,-121 384.92,-121 384.92,-121 513.58,-121 513.58,-121 517.67,-121 521.75,-125.08 521.75,-129.17 521.75,-129.17 521.75,-137.33 521.75,-137.33 521.75,-141.42 517.67,-145.5 513.58,-145.5"/>
<text text-anchor="middle" x="449.25" y="-128.2" font-family="Arial" font-size="14.00" fill="#c6c5fe">app/api/post/route.ts</text>
</g>
<!-- app/api/post/get.test.ts&#45;&gt;app/api/post/route.ts -->
<g id="edge8" class="edge">
<title>app/api/post/get.test.ts&#45;&gt;app/api/post/route.ts</title>
<path fill="none" stroke="#757575" d="M230.36,-131.05C272.11,-131.47 323.28,-131.99 365.53,-132.41"/>
<polygon fill="#757575" stroke="#757575" points="365.32,-135.92 375.35,-132.52 365.39,-128.92 365.32,-135.92"/>
</g>
<!-- app/api/post/route.post.ts -->
<g id="node13" class="node">
<title>app/api/post/route.post.ts</title>
<path fill="none" stroke="#c6c5fe" d="M774.46,-151.5C774.46,-151.5 614.29,-151.5 614.29,-151.5 610.21,-151.5 606.12,-147.42 606.12,-143.33 606.12,-143.33 606.12,-135.17 606.12,-135.17 606.12,-131.08 610.21,-127 614.29,-127 614.29,-127 774.46,-127 774.46,-127 778.54,-127 782.62,-131.08 782.62,-135.17 782.62,-135.17 782.62,-143.33 782.62,-143.33 782.62,-147.42 778.54,-151.5 774.46,-151.5"/>
<text text-anchor="middle" x="694.38" y="-134.2" font-family="Arial" font-size="14.00" fill="#c6c5fe">app/api/post/route.post.ts</text>
</g>
<!-- app/api/post/route.ts&#45;&gt;app/api/post/route.post.ts -->
<g id="edge17" class="edge">
<title>app/api/post/route.ts&#45;&gt;app/api/post/route.post.ts</title>
<path fill="none" stroke="#757575" d="M522.21,-135.03C545.02,-135.59 570.64,-136.22 594.97,-136.82"/>
<polygon fill="#757575" stroke="#757575" points="594.6,-140.34 604.68,-137.09 594.77,-133.34 594.6,-140.34"/>
</g>
<!-- app/api/post/route.get.ts -->
<g id="node14" class="node">
<title>app/api/post/route.get.ts</title>
<path fill="none" stroke="#c6c5fe" d="M770.71,-108.5C770.71,-108.5 618.04,-108.5 618.04,-108.5 613.96,-108.5 609.88,-104.42 609.88,-100.33 609.88,-100.33 609.88,-92.17 609.88,-92.17 609.88,-88.08 613.96,-84 618.04,-84 618.04,-84 770.71,-84 770.71,-84 774.79,-84 778.88,-88.08 778.88,-92.17 778.88,-92.17 778.88,-100.33 778.88,-100.33 778.88,-104.42 774.79,-108.5 770.71,-108.5"/>
<text text-anchor="middle" x="694.38" y="-91.2" font-family="Arial" font-size="14.00" fill="#c6c5fe">app/api/post/route.get.ts</text>
</g>
<!-- app/api/post/route.ts&#45;&gt;app/api/post/route.get.ts -->
<g id="edge16" class="edge">
<title>app/api/post/route.ts&#45;&gt;app/api/post/route.get.ts</title>
<path fill="none" stroke="#757575" d="M522.21,-122.3C546.22,-118.64 573.35,-114.52 598.82,-110.64"/>
<polygon fill="#757575" stroke="#757575" points="599.26,-113.96 608.62,-109 598.2,-107.04 599.26,-113.96"/>
</g>
<!-- app/api/post/post.test.ts -->
<g id="node12" class="node">
<title>app/api/post/post.test.ts</title>
<path fill="none" stroke="#c6c5fe" d="M225.71,-185.5C225.71,-185.5 74.54,-185.5 74.54,-185.5 70.46,-185.5 66.38,-181.42 66.38,-177.33 66.38,-177.33 66.38,-169.17 66.38,-169.17 66.38,-165.08 70.46,-161 74.54,-161 74.54,-161 225.71,-161 225.71,-161 229.79,-161 233.88,-165.08 233.88,-169.17 233.88,-169.17 233.88,-177.33 233.88,-177.33 233.88,-181.42 229.79,-185.5 225.71,-185.5"/>
<text text-anchor="middle" x="150.12" y="-168.2" font-family="Arial" font-size="14.00" fill="#c6c5fe">app/api/post/post.test.ts</text>
</g>
<!-- app/api/post/post.test.ts&#45;&gt;app/api/post/route.ts -->
<g id="edge10" class="edge">
<title>app/api/post/post.test.ts&#45;&gt;app/api/post/route.ts</title>
<path fill="none" stroke="#757575" d="M234.29,-162.05C275.42,-156.52 324.91,-149.85 365.93,-144.33"/>
<polygon fill="#757575" stroke="#757575" points="366.26,-147.68 375.71,-142.88 365.33,-140.75 366.26,-147.68"/>
</g>
<!-- app/api/post/post.test.ts&#45;&gt;app/api/post/route.post.ts -->
<g id="edge9" class="edge">
<title>app/api/post/post.test.ts&#45;&gt;app/api/post/route.post.ts</title>
<path fill="none" stroke="#757575" d="M234.3,-171.06C317.42,-168.48 448.83,-163.35 562.25,-154.25 572.78,-153.4 583.78,-152.38 594.73,-151.26"/>
<polygon fill="#757575" stroke="#757575" points="595.06,-154.64 604.64,-150.12 594.33,-147.68 595.06,-154.64"/>
</g>
<!-- app/api/post/route.post.ts&#45;&gt;schemas/session.ts -->
<g id="edge14" class="edge">
<title>app/api/post/route.post.ts&#45;&gt;schemas/session.ts</title>
<path fill="none" stroke="#757575" d="M772.69,-151.97C797.88,-156.11 825.91,-160.72 851.37,-164.91"/>
<polygon fill="#757575" stroke="#757575" points="850.67,-168.5 861.11,-166.67 851.81,-161.6 850.67,-168.5"/>
</g>
<!-- app/api/post/route.post.ts&#45;&gt;schemas/user.ts -->
<g id="edge15" class="edge">
<title>app/api/post/route.post.ts&#45;&gt;schemas/user.ts</title>
<path fill="none" stroke="#757575" d="M783.05,-131.62C854.17,-128.3 956.11,-130.11 1040.5,-157.25 1067.66,-165.99 1094.66,-184.48 1112.92,-198.83"/>
<polygon fill="#757575" stroke="#757575" points="1110.41,-202.11 1120.38,-205.68 1114.81,-196.67 1110.41,-202.11"/>
</g>
<!-- app/api/post/route.get.ts&#45;&gt;schemas/session.ts -->
<g id="edge13" class="edge">
<title>app/api/post/route.get.ts&#45;&gt;schemas/session.ts</title>
<path fill="none" stroke="#757575" d="M757.46,-108.98C768.55,-111.71 779.94,-114.83 790.5,-118.25 827.46,-130.23 868.16,-147.92 896.48,-160.99"/>
<polygon fill="#757575" stroke="#757575" points="894.78,-164.52 905.32,-165.57 897.74,-158.18 894.78,-164.52"/>
</g>
<!-- schemas/aggregations/posts.ts -->
<g id="node15" class="node">
<title>schemas/aggregations/posts.ts</title>
<path fill="none" stroke="#cfffac" d="M1032.33,-110.5C1032.33,-110.5 834.67,-110.5 834.67,-110.5 830.58,-110.5 826.5,-106.42 826.5,-102.33 826.5,-102.33 826.5,-94.17 826.5,-94.17 826.5,-90.08 830.58,-86 834.67,-86 834.67,-86 1032.33,-86 1032.33,-86 1036.42,-86 1040.5,-90.08 1040.5,-94.17 1040.5,-94.17 1040.5,-102.33 1040.5,-102.33 1040.5,-106.42 1036.42,-110.5 1032.33,-110.5"/>
<text text-anchor="middle" x="933.5" y="-93.2" font-family="Arial" font-size="14.00" fill="#cfffac">schemas/aggregations/posts.ts</text>
</g>
<!-- app/api/post/route.get.ts&#45;&gt;schemas/aggregations/posts.ts -->
<g id="edge11" class="edge">
<title>app/api/post/route.get.ts&#45;&gt;schemas/aggregations/posts.ts</title>
<path fill="none" stroke="#757575" d="M779.31,-96.96C791.06,-97.06 803.3,-97.16 815.52,-97.26"/>
<polygon fill="#757575" stroke="#757575" points="815.22,-100.77 825.24,-97.35 815.27,-93.77 815.22,-100.77"/>
</g>
<!-- schemas/post.ts -->
<g id="node16" class="node">
<title>schemas/post.ts</title>
<path fill="none" stroke="#c6c5fe" d="M985.46,-67.5C985.46,-67.5 881.54,-67.5 881.54,-67.5 877.46,-67.5 873.38,-63.42 873.38,-59.33 873.38,-59.33 873.38,-51.17 873.38,-51.17 873.38,-47.08 877.46,-43 881.54,-43 881.54,-43 985.46,-43 985.46,-43 989.54,-43 993.62,-47.08 993.62,-51.17 993.62,-51.17 993.62,-59.33 993.62,-59.33 993.62,-63.42 989.54,-67.5 985.46,-67.5"/>
<text text-anchor="middle" x="933.5" y="-50.2" font-family="Arial" font-size="14.00" fill="#c6c5fe">schemas/post.ts</text>
</g>
<!-- app/api/post/route.get.ts&#45;&gt;schemas/post.ts -->
<g id="edge12" class="edge">
<title>app/api/post/route.get.ts&#45;&gt;schemas/post.ts</title>
<path fill="none" stroke="#757575" d="M769.1,-83.5C798.89,-78.35 833.1,-72.44 862.5,-67.35"/>
<polygon fill="#757575" stroke="#757575" points="862.84,-70.67 872.1,-65.52 861.65,-63.78 862.84,-70.67"/>
</g>
<!-- schemas/post.ts&#45;&gt;schemas/user.ts -->
<g id="edge34" class="edge">
<title>schemas/post.ts&#45;&gt;schemas/user.ts</title>
<path fill="none" stroke="#757575" d="M994.07,-59.39C1010.14,-62.62 1026.84,-68.09 1040.5,-77.25 1084.37,-106.68 1113.38,-163.84 1126.88,-195.6"/>
<polygon fill="#757575" stroke="#757575" points="1123.98,-196.75 1131,-204.68 1130.45,-194.1 1123.98,-196.75"/>
</g>
<!-- app/api/register/route.test.ts -->
<g id="node17" class="node">
<title>app/api/register/route.test.ts</title>
<path fill="none" stroke="#c6c5fe" d="M782.33,-311.5C782.33,-311.5 606.42,-311.5 606.42,-311.5 602.33,-311.5 598.25,-307.42 598.25,-303.33 598.25,-303.33 598.25,-295.17 598.25,-295.17 598.25,-291.08 602.33,-287 606.42,-287 606.42,-287 782.33,-287 782.33,-287 786.42,-287 790.5,-291.08 790.5,-295.17 790.5,-295.17 790.5,-303.33 790.5,-303.33 790.5,-307.42 786.42,-311.5 782.33,-311.5"/>
<text text-anchor="middle" x="694.38" y="-294.2" font-family="Arial" font-size="14.00" fill="#c6c5fe">app/api/register/route.test.ts</text>
</g>
<!-- app/api/register/route.ts -->
<g id="node18" class="node">
<title>app/api/register/route.ts</title>
<path fill="none" stroke="#c6c5fe" d="M1007.96,-308.5C1007.96,-308.5 859.04,-308.5 859.04,-308.5 854.96,-308.5 850.88,-304.42 850.88,-300.33 850.88,-300.33 850.88,-292.17 850.88,-292.17 850.88,-288.08 854.96,-284 859.04,-284 859.04,-284 1007.96,-284 1007.96,-284 1012.04,-284 1016.12,-288.08 1016.12,-292.17 1016.12,-292.17 1016.12,-300.33 1016.12,-300.33 1016.12,-304.42 1012.04,-308.5 1007.96,-308.5"/>
<text text-anchor="middle" x="933.5" y="-291.2" font-family="Arial" font-size="14.00" fill="#c6c5fe">app/api/register/route.ts</text>
</g>
<!-- app/api/register/route.test.ts&#45;&gt;app/api/register/route.ts -->
<g id="edge18" class="edge">
<title>app/api/register/route.test.ts&#45;&gt;app/api/register/route.ts</title>
<path fill="none" stroke="#757575" d="M790.8,-298.04C806.9,-297.84 823.6,-297.63 839.63,-297.42"/>
<polygon fill="#757575" stroke="#757575" points="839.66,-300.91 849.61,-297.29 839.57,-293.91 839.66,-300.91"/>
</g>
<!-- app/api/register/route.ts&#45;&gt;schemas/user.ts -->
<g id="edge19" class="edge">
<title>app/api/register/route.ts&#45;&gt;schemas/user.ts</title>
<path fill="none" stroke="#757575" d="M997.83,-283.57C1012.09,-279.93 1026.99,-275.5 1040.5,-270.25 1063.7,-261.24 1088.31,-247.66 1106.69,-236.64"/>
<polygon fill="#757575" stroke="#757575" points="1108.24,-239.19 1114.95,-230.99 1104.59,-233.21 1108.24,-239.19"/>
</g>
<!-- app/api/user/route.ts -->
<g id="node19" class="node">
<title>app/api/user/route.ts</title>
<path fill="none" stroke="#c6c5fe" d="M997.83,-24.5C997.83,-24.5 869.17,-24.5 869.17,-24.5 865.08,-24.5 861,-20.42 861,-16.33 861,-16.33 861,-8.17 861,-8.17 861,-4.08 865.08,0 869.17,0 869.17,0 997.83,0 997.83,0 1001.92,0 1006,-4.08 1006,-8.17 1006,-8.17 1006,-16.33 1006,-16.33 1006,-20.42 1001.92,-24.5 997.83,-24.5"/>
<text text-anchor="middle" x="933.5" y="-7.2" font-family="Arial" font-size="14.00" fill="#c6c5fe">app/api/user/route.ts</text>
</g>
<!-- app/api/user/route.ts&#45;&gt;schemas/user.ts -->
<g id="edge20" class="edge">
<title>app/api/user/route.ts&#45;&gt;schemas/user.ts</title>
<path fill="none" stroke="#757575" d="M1006.39,-18.15C1018.61,-21.58 1030.54,-26.69 1040.5,-34.25 1094.47,-75.21 1120.52,-155.54 1130.52,-195.1"/>
<polygon fill="#757575" stroke="#757575" points="1127.29,-195.64 1133.02,-204.55 1134.1,-194.01 1127.29,-195.64"/>
</g>
<!-- app/in/PostView/index.tsx -->
<g id="node20" class="node">
<title>app/in/PostView/index.tsx</title>
<path fill="none" stroke="#c6c5fe" d="M529.71,-59.5C529.71,-59.5 368.79,-59.5 368.79,-59.5 364.71,-59.5 360.62,-55.42 360.62,-51.33 360.62,-51.33 360.62,-43.17 360.62,-43.17 360.62,-39.08 364.71,-35 368.79,-35 368.79,-35 529.71,-35 529.71,-35 533.79,-35 537.88,-39.08 537.88,-43.17 537.88,-43.17 537.88,-51.33 537.88,-51.33 537.88,-55.42 533.79,-59.5 529.71,-59.5"/>
<text text-anchor="middle" x="449.25" y="-42.2" font-family="Arial" font-size="14.00" fill="#c6c5fe">app/in/PostView/index.tsx</text>
</g>
<!-- app/in/PostView/index.tsx&#45;&gt;app/api/post/route.get.ts -->
<g id="edge21" class="edge">
<title>app/in/PostView/index.tsx&#45;&gt;app/api/post/route.get.ts</title>
<path fill="none" stroke="#757575" d="M515.42,-59.95C530.78,-62.97 547.1,-66.2 562.25,-69.25 581.57,-73.14 602.48,-77.41 621.8,-81.39"/>
<polygon fill="#757575" stroke="#757575" points="620.86,-84.97 631.36,-83.57 622.27,-78.12 620.86,-84.97"/>
</g>
<!-- app/in/PostView/index.tsx&#45;&gt;schemas/post.ts -->
<g id="edge22" class="edge">
<title>app/in/PostView/index.tsx&#45;&gt;schemas/post.ts</title>
<path fill="none" stroke="#757575" d="M538.14,-48.71C631.19,-50.25 776.21,-52.66 862.04,-54.08"/>
<polygon fill="#757575" stroke="#757575" points="861.92,-57.6 871.98,-54.26 862.03,-50.6 861.92,-57.6"/>
</g>
<!-- app/in/layout.tsx -->
<g id="node21" class="node">
<title>app/in/layout.tsx</title>
<path fill="none" stroke="#cfffac" d="M200.21,-397.5C200.21,-397.5 100.04,-397.5 100.04,-397.5 95.96,-397.5 91.88,-393.42 91.88,-389.33 91.88,-389.33 91.88,-381.17 91.88,-381.17 91.88,-377.08 95.96,-373 100.04,-373 100.04,-373 200.21,-373 200.21,-373 204.29,-373 208.38,-377.08 208.38,-381.17 208.38,-381.17 208.38,-389.33 208.38,-389.33 208.38,-393.42 204.29,-397.5 200.21,-397.5"/>
<text text-anchor="middle" x="150.12" y="-380.2" font-family="Arial" font-size="14.00" fill="#cfffac">app/in/layout.tsx</text>
</g>
<!-- app/in/page.tsx -->
<g id="node22" class="node">
<title>app/in/page.tsx</title>
<path fill="none" stroke="#c6c5fe" d="M497.08,-102.5C497.08,-102.5 401.42,-102.5 401.42,-102.5 397.33,-102.5 393.25,-98.42 393.25,-94.33 393.25,-94.33 393.25,-86.17 393.25,-86.17 393.25,-82.08 397.33,-78 401.42,-78 401.42,-78 497.08,-78 497.08,-78 501.17,-78 505.25,-82.08 505.25,-86.17 505.25,-86.17 505.25,-94.33 505.25,-94.33 505.25,-98.42 501.17,-102.5 497.08,-102.5"/>
<text text-anchor="middle" x="449.25" y="-85.2" font-family="Arial" font-size="14.00" fill="#c6c5fe">app/in/page.tsx</text>
</g>
<!-- app/in/page.tsx&#45;&gt;app/api/post/route.get.ts -->
<g id="edge23" class="edge">
<title>app/in/page.tsx&#45;&gt;app/api/post/route.get.ts</title>
<path fill="none" stroke="#757575" d="M505.72,-91.62C533.18,-92.3 567.1,-93.13 598.51,-93.91"/>
<polygon fill="#757575" stroke="#757575" points="598.42,-97.43 608.5,-94.18 598.59,-90.43 598.42,-97.43"/>
</g>
<!-- app/layout.tsx -->
<g id="node23" class="node">
<title>app/layout.tsx</title>
<path fill="none" stroke="#c6c5fe" d="M193.08,-440.5C193.08,-440.5 107.17,-440.5 107.17,-440.5 103.08,-440.5 99,-436.42 99,-432.33 99,-432.33 99,-424.17 99,-424.17 99,-420.08 103.08,-416 107.17,-416 107.17,-416 193.08,-416 193.08,-416 197.17,-416 201.25,-420.08 201.25,-424.17 201.25,-424.17 201.25,-432.33 201.25,-432.33 201.25,-436.42 197.17,-440.5 193.08,-440.5"/>
<text text-anchor="middle" x="150.12" y="-423.2" font-family="Arial" font-size="14.00" fill="#c6c5fe">app/layout.tsx</text>
</g>
<!-- styles/tailwind.css -->
<g id="node24" class="node">
<title>styles/tailwind.css</title>
<path fill="none" stroke="#cfffac" d="M505.33,-440.5C505.33,-440.5 393.17,-440.5 393.17,-440.5 389.08,-440.5 385,-436.42 385,-432.33 385,-432.33 385,-424.17 385,-424.17 385,-420.08 389.08,-416 393.17,-416 393.17,-416 505.33,-416 505.33,-416 509.42,-416 513.5,-420.08 513.5,-424.17 513.5,-424.17 513.5,-432.33 513.5,-432.33 513.5,-436.42 509.42,-440.5 505.33,-440.5"/>
<text text-anchor="middle" x="449.25" y="-423.2" font-family="Arial" font-size="14.00" fill="#cfffac">styles/tailwind.css</text>
</g>
<!-- app/layout.tsx&#45;&gt;styles/tailwind.css -->
<g id="edge24" class="edge">
<title>app/layout.tsx&#45;&gt;styles/tailwind.css</title>
<path fill="none" stroke="#757575" d="M201.53,-428.25C248.77,-428.25 319.99,-428.25 373.78,-428.25"/>
<polygon fill="#757575" stroke="#757575" points="373.64,-431.75 383.64,-428.25 373.64,-424.75 373.64,-431.75"/>
</g>
<!-- app/login/components/LoginForm/index.tsx -->
<g id="node25" class="node">
<title>app/login/components/LoginForm/index.tsx</title>
<path fill="none" stroke="#cfffac" d="M286.08,-483.5C286.08,-483.5 14.17,-483.5 14.17,-483.5 10.08,-483.5 6,-479.42 6,-475.33 6,-475.33 6,-467.17 6,-467.17 6,-463.08 10.08,-459 14.17,-459 14.17,-459 286.08,-459 286.08,-459 290.17,-459 294.25,-463.08 294.25,-467.17 294.25,-467.17 294.25,-475.33 294.25,-475.33 294.25,-479.42 290.17,-483.5 286.08,-483.5"/>
<text text-anchor="middle" x="150.12" y="-466.2" font-family="Arial" font-size="14.00" fill="#cfffac">app/login/components/LoginForm/index.tsx</text>
</g>
<!-- app/login/page.tsx -->
<g id="node26" class="node">
<title>app/login/page.tsx</title>
<path fill="none" stroke="#cfffac" d="M207.71,-526.5C207.71,-526.5 92.54,-526.5 92.54,-526.5 88.46,-526.5 84.38,-522.42 84.38,-518.33 84.38,-518.33 84.38,-510.17 84.38,-510.17 84.38,-506.08 88.46,-502 92.54,-502 92.54,-502 207.71,-502 207.71,-502 211.79,-502 215.88,-506.08 215.88,-510.17 215.88,-510.17 215.88,-518.33 215.88,-518.33 215.88,-522.42 211.79,-526.5 207.71,-526.5"/>
<text text-anchor="middle" x="150.12" y="-509.2" font-family="Arial" font-size="14.00" fill="#cfffac">app/login/page.tsx</text>
</g>
<!-- app/page.tsx -->
<g id="node27" class="node">
<title>app/page.tsx</title>
<path fill="none" stroke="#cfffac" d="M190.83,-569.5C190.83,-569.5 109.42,-569.5 109.42,-569.5 105.33,-569.5 101.25,-565.42 101.25,-561.33 101.25,-561.33 101.25,-553.17 101.25,-553.17 101.25,-549.08 105.33,-545 109.42,-545 109.42,-545 190.83,-545 190.83,-545 194.92,-545 199,-549.08 199,-553.17 199,-553.17 199,-561.33 199,-561.33 199,-565.42 194.92,-569.5 190.83,-569.5"/>
<text text-anchor="middle" x="150.12" y="-552.2" font-family="Arial" font-size="14.00" fill="#cfffac">app/page.tsx</text>
</g>
<!-- app/signup/components/LoginForm/index.tsx -->
<g id="node28" class="node">
<title>app/signup/components/LoginForm/index.tsx</title>
<path fill="none" stroke="#c6c5fe" d="M292.08,-673.5C292.08,-673.5 8.17,-673.5 8.17,-673.5 4.08,-673.5 0,-669.42 0,-665.33 0,-665.33 0,-657.17 0,-657.17 0,-653.08 4.08,-649 8.17,-649 8.17,-649 292.08,-649 292.08,-649 296.17,-649 300.25,-653.08 300.25,-657.17 300.25,-657.17 300.25,-665.33 300.25,-665.33 300.25,-669.42 296.17,-673.5 292.08,-673.5"/>
<text text-anchor="middle" x="150.12" y="-656.2" font-family="Arial" font-size="14.00" fill="#c6c5fe">app/signup/components/LoginForm/index.tsx</text>
</g>
<!-- app/signup/reducer.ts -->
<g id="node29" class="node">
<title>app/signup/reducer.ts</title>
<path fill="none" stroke="#cfffac" d="M762.83,-672.5C762.83,-672.5 625.92,-672.5 625.92,-672.5 621.83,-672.5 617.75,-668.42 617.75,-664.33 617.75,-664.33 617.75,-656.17 617.75,-656.17 617.75,-652.08 621.83,-648 625.92,-648 625.92,-648 762.83,-648 762.83,-648 766.92,-648 771,-652.08 771,-656.17 771,-656.17 771,-664.33 771,-664.33 771,-668.42 766.92,-672.5 762.83,-672.5"/>
<text text-anchor="middle" x="694.38" y="-655.2" font-family="Arial" font-size="14.00" fill="#cfffac">app/signup/reducer.ts</text>
</g>
<!-- app/signup/components/LoginForm/index.tsx&#45;&gt;app/signup/reducer.ts -->
<g id="edge25" class="edge">
<title>app/signup/components/LoginForm/index.tsx&#45;&gt;app/signup/reducer.ts</title>
<path fill="none" stroke="#757575" d="M300.73,-660.97C399.14,-660.79 524.47,-660.56 606.72,-660.41"/>
<polygon fill="#757575" stroke="#757575" points="606.54,-663.91 616.53,-660.39 606.53,-656.91 606.54,-663.91"/>
</g>
<!-- app/signup/sumbit.tsx -->
<g id="node30" class="node">
<title>app/signup/sumbit.tsx</title>
<path fill="none" stroke="#c6c5fe" d="M517.71,-642.5C517.71,-642.5 380.79,-642.5 380.79,-642.5 376.71,-642.5 372.62,-638.42 372.62,-634.33 372.62,-634.33 372.62,-626.17 372.62,-626.17 372.62,-622.08 376.71,-618 380.79,-618 380.79,-618 517.71,-618 517.71,-618 521.79,-618 525.88,-622.08 525.88,-626.17 525.88,-626.17 525.88,-634.33 525.88,-634.33 525.88,-638.42 521.79,-642.5 517.71,-642.5"/>
<text text-anchor="middle" x="449.25" y="-625.2" font-family="Arial" font-size="14.00" fill="#c6c5fe">app/signup/sumbit.tsx</text>
</g>
<!-- app/signup/components/LoginForm/index.tsx&#45;&gt;app/signup/sumbit.tsx -->
<g id="edge26" class="edge">
<title>app/signup/components/LoginForm/index.tsx&#45;&gt;app/signup/sumbit.tsx</title>
<path fill="none" stroke="#757575" d="M273.26,-648.51C302.94,-645.41 334.06,-642.16 361.7,-639.28"/>
<polygon fill="#757575" stroke="#757575" points="361.93,-642.67 371.51,-638.15 361.2,-635.71 361.93,-642.67"/>
</g>
<!-- app/signup/sumbit.tsx&#45;&gt;app/signup/reducer.ts -->
<g id="edge29" class="edge">
<title>app/signup/sumbit.tsx&#45;&gt;app/signup/reducer.ts</title>
<path fill="none" stroke="#757575" d="M526.18,-639.62C551.77,-642.78 580.52,-646.32 606.87,-649.58"/>
<polygon fill="#757575" stroke="#757575" points="606.25,-653.15 616.61,-650.9 607.11,-646.2 606.25,-653.15"/>
</g>
<!-- app/signup/sumbit.types.ts -->
<g id="node33" class="node">
<title>app/signup/sumbit.types.ts</title>
<path fill="none" stroke="#cfffac" d="M778.58,-611.5C778.58,-611.5 610.17,-611.5 610.17,-611.5 606.08,-611.5 602,-607.42 602,-603.33 602,-603.33 602,-595.17 602,-595.17 602,-591.08 606.08,-587 610.17,-587 610.17,-587 778.58,-587 778.58,-587 782.67,-587 786.75,-591.08 786.75,-595.17 786.75,-595.17 786.75,-603.33 786.75,-603.33 786.75,-607.42 782.67,-611.5 778.58,-611.5"/>
<text text-anchor="middle" x="694.38" y="-594.2" font-family="Arial" font-size="14.00" fill="#cfffac">app/signup/sumbit.types.ts</text>
</g>
<!-- app/signup/sumbit.tsx&#45;&gt;app/signup/sumbit.types.ts -->
<g id="edge30" class="edge">
<title>app/signup/sumbit.tsx&#45;&gt;app/signup/sumbit.types.ts</title>
<path fill="none" stroke="#757575" d="M526.18,-620.57C546.68,-617.95 569.2,-615.08 590.9,-612.32"/>
<polygon fill="#757575" stroke="#757575" points="591.33,-615.66 600.81,-610.93 590.45,-608.72 591.33,-615.66"/>
</g>
<!-- app/signup/page.tsx -->
<g id="node31" class="node">
<title>app/signup/page.tsx</title>
<path fill="none" stroke="#cfffac" d="M213.71,-716.5C213.71,-716.5 86.54,-716.5 86.54,-716.5 82.46,-716.5 78.38,-712.42 78.38,-708.33 78.38,-708.33 78.38,-700.17 78.38,-700.17 78.38,-696.08 82.46,-692 86.54,-692 86.54,-692 213.71,-692 213.71,-692 217.79,-692 221.88,-696.08 221.88,-700.17 221.88,-700.17 221.88,-708.33 221.88,-708.33 221.88,-712.42 217.79,-716.5 213.71,-716.5"/>
<text text-anchor="middle" x="150.12" y="-699.2" font-family="Arial" font-size="14.00" fill="#cfffac">app/signup/page.tsx</text>
</g>
<!-- app/signup/submit.test.tsx -->
<g id="node32" class="node">
<title>app/signup/submit.test.tsx</title>
<path fill="none" stroke="#c6c5fe" d="M232.08,-612.5C232.08,-612.5 68.17,-612.5 68.17,-612.5 64.08,-612.5 60,-608.42 60,-604.33 60,-604.33 60,-596.17 60,-596.17 60,-592.08 64.08,-588 68.17,-588 68.17,-588 232.08,-588 232.08,-588 236.17,-588 240.25,-592.08 240.25,-596.17 240.25,-596.17 240.25,-604.33 240.25,-604.33 240.25,-608.42 236.17,-612.5 232.08,-612.5"/>
<text text-anchor="middle" x="150.12" y="-595.2" font-family="Arial" font-size="14.00" fill="#c6c5fe">app/signup/submit.test.tsx</text>
</g>
<!-- app/signup/submit.test.tsx&#45;&gt;app/signup/sumbit.tsx -->
<g id="edge27" class="edge">
<title>app/signup/submit.test.tsx&#45;&gt;app/signup/sumbit.tsx</title>
<path fill="none" stroke="#757575" d="M240.68,-609.29C279.1,-613.17 323.81,-617.69 361.87,-621.53"/>
<polygon fill="#757575" stroke="#757575" points="361.12,-625.07 371.42,-622.59 361.82,-618.11 361.12,-625.07"/>
</g>
<!-- app/signup/submit.test.tsx&#45;&gt;app/signup/sumbit.types.ts -->
<g id="edge28" class="edge">
<title>app/signup/submit.test.tsx&#45;&gt;app/signup/sumbit.types.ts</title>
<path fill="none" stroke="#757575" d="M240.67,-600.08C337.02,-599.91 490.01,-599.63 591.06,-599.44"/>
<polygon fill="#757575" stroke="#757575" points="590.89,-602.94 600.89,-599.42 590.88,-595.94 590.89,-602.94"/>
</g>
<!-- app/test/route.ts -->
<g id="node34" class="node">
<title>app/test/route.ts</title>
<path fill="none" stroke="#cfffac" d="M200.96,-759.5C200.96,-759.5 99.29,-759.5 99.29,-759.5 95.21,-759.5 91.12,-755.42 91.12,-751.33 91.12,-751.33 91.12,-743.17 91.12,-743.17 91.12,-739.08 95.21,-735 99.29,-735 99.29,-735 200.96,-735 200.96,-735 205.04,-735 209.12,-739.08 209.12,-743.17 209.12,-743.17 209.12,-751.33 209.12,-751.33 209.12,-755.42 205.04,-759.5 200.96,-759.5"/>
<text text-anchor="middle" x="150.12" y="-742.2" font-family="Arial" font-size="14.00" fill="#cfffac">app/test/route.ts</text>
</g>
<!-- components/Alert/index.stories.tsx -->
<g id="node35" class="node">
<title>components/Alert/index.stories.tsx</title>
<path fill="none" stroke="#cfffac" d="M258.71,-802.5C258.71,-802.5 41.54,-802.5 41.54,-802.5 37.46,-802.5 33.37,-798.42 33.37,-794.33 33.37,-794.33 33.37,-786.17 33.37,-786.17 33.37,-782.08 37.46,-778 41.54,-778 41.54,-778 258.71,-778 258.71,-778 262.79,-778 266.88,-782.08 266.88,-786.17 266.88,-786.17 266.88,-794.33 266.88,-794.33 266.88,-798.42 262.79,-802.5 258.71,-802.5"/>
<text text-anchor="middle" x="150.12" y="-785.2" font-family="Arial" font-size="14.00" fill="#cfffac">components/Alert/index.stories.tsx</text>
</g>
<!-- components/Alert/index.tsx -->
<g id="node36" class="node">
<title>components/Alert/index.tsx</title>
<path fill="none" stroke="#cfffac" d="M235.46,-845.5C235.46,-845.5 64.79,-845.5 64.79,-845.5 60.71,-845.5 56.62,-841.42 56.62,-837.33 56.62,-837.33 56.62,-829.17 56.62,-829.17 56.62,-825.08 60.71,-821 64.79,-821 64.79,-821 235.46,-821 235.46,-821 239.54,-821 243.62,-825.08 243.62,-829.17 243.62,-829.17 243.62,-837.33 243.62,-837.33 243.62,-841.42 239.54,-845.5 235.46,-845.5"/>
<text text-anchor="middle" x="150.12" y="-828.2" font-family="Arial" font-size="14.00" fill="#cfffac">components/Alert/index.tsx</text>
</g>
<!-- components/Header/index.stories.tsx -->
<g id="node37" class="node">
<title>components/Header/index.stories.tsx</title>
<path fill="none" stroke="#cfffac" d="M267.33,-888.5C267.33,-888.5 32.92,-888.5 32.92,-888.5 28.83,-888.5 24.75,-884.42 24.75,-880.33 24.75,-880.33 24.75,-872.17 24.75,-872.17 24.75,-868.08 28.83,-864 32.92,-864 32.92,-864 267.33,-864 267.33,-864 271.42,-864 275.5,-868.08 275.5,-872.17 275.5,-872.17 275.5,-880.33 275.5,-880.33 275.5,-884.42 271.42,-888.5 267.33,-888.5"/>
<text text-anchor="middle" x="150.12" y="-871.2" font-family="Arial" font-size="14.00" fill="#cfffac">components/Header/index.stories.tsx</text>
</g>
<!-- components/Header/index.tsx -->
<g id="node38" class="node">
<title>components/Header/index.tsx</title>
<path fill="none" stroke="#c6c5fe" d="M1027.46,-351.5C1027.46,-351.5 839.54,-351.5 839.54,-351.5 835.46,-351.5 831.38,-347.42 831.38,-343.33 831.38,-343.33 831.38,-335.17 831.38,-335.17 831.38,-331.08 835.46,-327 839.54,-327 839.54,-327 1027.46,-327 1027.46,-327 1031.54,-327 1035.62,-331.08 1035.62,-335.17 1035.62,-335.17 1035.62,-343.33 1035.62,-343.33 1035.62,-347.42 1031.54,-351.5 1027.46,-351.5"/>
<text text-anchor="middle" x="933.5" y="-334.2" font-family="Arial" font-size="14.00" fill="#c6c5fe">components/Header/index.tsx</text>
</g>
<!-- components/Header/index.tsx&#45;&gt;schemas/user.ts -->
<g id="edge31" class="edge">
<title>components/Header/index.tsx&#45;&gt;schemas/user.ts</title>
<path fill="none" stroke="#757575" d="M1019.22,-326.56C1026.63,-324 1033.84,-320.93 1040.5,-317.25 1074.82,-298.28 1104.31,-262.81 1121.01,-239.88"/>
<polygon fill="#757575" stroke="#757575" points="1124.44,-242.09 1127.36,-231.91 1118.72,-238.05 1124.44,-242.09"/>
</g>
<!-- components/PageSwitcher/index.stories.tsx -->
<g id="node39" class="node">
<title>components/PageSwitcher/index.stories.tsx</title>
<path fill="none" stroke="#cfffac" d="M287.96,-931.5C287.96,-931.5 12.29,-931.5 12.29,-931.5 8.21,-931.5 4.12,-927.42 4.12,-923.33 4.12,-923.33 4.12,-915.17 4.12,-915.17 4.12,-911.08 8.21,-907 12.29,-907 12.29,-907 287.96,-907 287.96,-907 292.04,-907 296.12,-911.08 296.12,-915.17 296.12,-915.17 296.12,-923.33 296.12,-923.33 296.12,-927.42 292.04,-931.5 287.96,-931.5"/>
<text text-anchor="middle" x="150.12" y="-914.2" font-family="Arial" font-size="14.00" fill="#cfffac">components/PageSwitcher/index.stories.tsx</text>
</g>
<!-- components/PageSwitcher/index.tsx -->
<g id="node40" class="node">
<title>components/PageSwitcher/index.tsx</title>
<path fill="none" stroke="#cfffac" d="M264.71,-974.5C264.71,-974.5 35.54,-974.5 35.54,-974.5 31.46,-974.5 27.38,-970.42 27.38,-966.33 27.38,-966.33 27.38,-958.17 27.38,-958.17 27.38,-954.08 31.46,-950 35.54,-950 35.54,-950 264.71,-950 264.71,-950 268.79,-950 272.88,-954.08 272.88,-958.17 272.88,-958.17 272.88,-966.33 272.88,-966.33 272.88,-970.42 268.79,-974.5 264.71,-974.5"/>
<text text-anchor="middle" x="150.12" y="-957.2" font-family="Arial" font-size="14.00" fill="#cfffac">components/PageSwitcher/index.tsx</text>
</g>
<!-- components/Post/index.tsx -->
<g id="node41" class="node">
<title>components/Post/index.tsx</title>
<path fill="none" stroke="#c6c5fe" d="M779.71,-27.5C779.71,-27.5 609.04,-27.5 609.04,-27.5 604.96,-27.5 600.88,-23.42 600.88,-19.33 600.88,-19.33 600.88,-11.17 600.88,-11.17 600.88,-7.08 604.96,-3 609.04,-3 609.04,-3 779.71,-3 779.71,-3 783.79,-3 787.88,-7.08 787.88,-11.17 787.88,-11.17 787.88,-19.33 787.88,-19.33 787.88,-23.42 783.79,-27.5 779.71,-27.5"/>
<text text-anchor="middle" x="694.38" y="-10.2" font-family="Arial" font-size="14.00" fill="#c6c5fe">components/Post/index.tsx</text>
</g>
<!-- components/Post/index.tsx&#45;&gt;schemas/post.ts -->
<g id="edge32" class="edge">
<title>components/Post/index.tsx&#45;&gt;schemas/post.ts</title>
<path fill="none" stroke="#757575" d="M770.73,-27.96C800.07,-32.91 833.5,-38.55 862.33,-43.41"/>
<polygon fill="#757575" stroke="#757575" points="861.69,-47.02 872.13,-45.23 862.85,-40.12 861.69,-47.02"/>
</g>
<!-- components/PostEditor/Editor/index.tsx -->
<g id="node42" class="node">
<title>components/PostEditor/Editor/index.tsx</title>
<path fill="none" stroke="#cfffac" d="M274.83,-1017.5C274.83,-1017.5 25.42,-1017.5 25.42,-1017.5 21.33,-1017.5 17.25,-1013.42 17.25,-1009.33 17.25,-1009.33 17.25,-1001.17 17.25,-1001.17 17.25,-997.08 21.33,-993 25.42,-993 25.42,-993 274.83,-993 274.83,-993 278.92,-993 283,-997.08 283,-1001.17 283,-1001.17 283,-1009.33 283,-1009.33 283,-1013.42 278.92,-1017.5 274.83,-1017.5"/>
<text text-anchor="middle" x="150.12" y="-1000.2" font-family="Arial" font-size="14.00" fill="#cfffac">components/PostEditor/Editor/index.tsx</text>
</g>
<!-- components/PostEditor/index.stories.tsx -->
<g id="node43" class="node">
<title>components/PostEditor/index.stories.tsx</title>
<path fill="none" stroke="#cfffac" d="M277.46,-1060.5C277.46,-1060.5 22.79,-1060.5 22.79,-1060.5 18.71,-1060.5 14.62,-1056.42 14.62,-1052.33 14.62,-1052.33 14.62,-1044.17 14.62,-1044.17 14.62,-1040.08 18.71,-1036 22.79,-1036 22.79,-1036 277.46,-1036 277.46,-1036 281.54,-1036 285.62,-1040.08 285.62,-1044.17 285.62,-1044.17 285.62,-1052.33 285.62,-1052.33 285.62,-1056.42 281.54,-1060.5 277.46,-1060.5"/>
<text text-anchor="middle" x="150.12" y="-1043.2" font-family="Arial" font-size="14.00" fill="#cfffac">components/PostEditor/index.stories.tsx</text>
</g>
<!-- components/PostEditor/index.tsx -->
<g id="node44" class="node">
<title>components/PostEditor/index.tsx</title>
<path fill="none" stroke="#c6c5fe" d="M254.21,-1103.5C254.21,-1103.5 46.04,-1103.5 46.04,-1103.5 41.96,-1103.5 37.88,-1099.42 37.88,-1095.33 37.88,-1095.33 37.88,-1087.17 37.88,-1087.17 37.88,-1083.08 41.96,-1079 46.04,-1079 46.04,-1079 254.21,-1079 254.21,-1079 258.29,-1079 262.38,-1083.08 262.38,-1087.17 262.38,-1087.17 262.38,-1095.33 262.38,-1095.33 262.38,-1099.42 258.29,-1103.5 254.21,-1103.5"/>
<text text-anchor="middle" x="150.12" y="-1086.2" font-family="Arial" font-size="14.00" fill="#c6c5fe">components/PostEditor/index.tsx</text>
</g>
<!-- components/PostEditor/submit.ts -->
<g id="node45" class="node">
<title>components/PostEditor/submit.ts</title>
<path fill="none" stroke="#cfffac" d="M554.08,-1103.5C554.08,-1103.5 344.42,-1103.5 344.42,-1103.5 340.33,-1103.5 336.25,-1099.42 336.25,-1095.33 336.25,-1095.33 336.25,-1087.17 336.25,-1087.17 336.25,-1083.08 340.33,-1079 344.42,-1079 344.42,-1079 554.08,-1079 554.08,-1079 558.17,-1079 562.25,-1083.08 562.25,-1087.17 562.25,-1087.17 562.25,-1095.33 562.25,-1095.33 562.25,-1099.42 558.17,-1103.5 554.08,-1103.5"/>
<text text-anchor="middle" x="449.25" y="-1086.2" font-family="Arial" font-size="14.00" fill="#cfffac">components/PostEditor/submit.ts</text>
</g>
<!-- components/PostEditor/index.tsx&#45;&gt;components/PostEditor/submit.ts -->
<g id="edge33" class="edge">
<title>components/PostEditor/index.tsx&#45;&gt;components/PostEditor/submit.ts</title>
<path fill="none" stroke="#757575" d="M262.61,-1091.25C283.08,-1091.25 304.56,-1091.25 325.34,-1091.25"/>
<polygon fill="#757575" stroke="#757575" points="325.14,-1094.75 335.14,-1091.25 325.14,-1087.75 325.14,-1094.75"/>
</g>
<!-- components/StepForm/index.stories.tsx -->
<g id="node46" class="node">
<title>components/StepForm/index.stories.tsx</title>
<path fill="none" stroke="#cfffac" d="M275.96,-1146.5C275.96,-1146.5 24.29,-1146.5 24.29,-1146.5 20.21,-1146.5 16.12,-1142.42 16.12,-1138.33 16.12,-1138.33 16.12,-1130.17 16.12,-1130.17 16.12,-1126.08 20.21,-1122 24.29,-1122 24.29,-1122 275.96,-1122 275.96,-1122 280.04,-1122 284.12,-1126.08 284.12,-1130.17 284.12,-1130.17 284.12,-1138.33 284.12,-1138.33 284.12,-1142.42 280.04,-1146.5 275.96,-1146.5"/>
<text text-anchor="middle" x="150.12" y="-1129.2" font-family="Arial" font-size="14.00" fill="#cfffac">components/StepForm/index.stories.tsx</text>
</g>
<!-- components/StepForm/index.tsx -->
<g id="node47" class="node">
<title>components/StepForm/index.tsx</title>
<path fill="none" stroke="#cfffac" d="M252.71,-1189.5C252.71,-1189.5 47.54,-1189.5 47.54,-1189.5 43.46,-1189.5 39.38,-1185.42 39.38,-1181.33 39.38,-1181.33 39.38,-1173.17 39.38,-1173.17 39.38,-1169.08 43.46,-1165 47.54,-1165 47.54,-1165 252.71,-1165 252.71,-1165 256.79,-1165 260.88,-1169.08 260.88,-1173.17 260.88,-1173.17 260.88,-1181.33 260.88,-1181.33 260.88,-1185.42 256.79,-1189.5 252.71,-1189.5"/>
<text text-anchor="middle" x="150.12" y="-1172.2" font-family="Arial" font-size="14.00" fill="#cfffac">components/StepForm/index.tsx</text>
</g>
<!-- coverage/lcov&#45;report/base.css -->
<g id="node48" class="node">
<title>coverage/lcov&#45;report/base.css</title>
<path fill="none" stroke="#cfffac" d="M245.96,-1232.5C245.96,-1232.5 54.29,-1232.5 54.29,-1232.5 50.21,-1232.5 46.12,-1228.42 46.12,-1224.33 46.12,-1224.33 46.12,-1216.17 46.12,-1216.17 46.12,-1212.08 50.21,-1208 54.29,-1208 54.29,-1208 245.96,-1208 245.96,-1208 250.04,-1208 254.12,-1212.08 254.12,-1216.17 254.12,-1216.17 254.12,-1224.33 254.12,-1224.33 254.12,-1228.42 250.04,-1232.5 245.96,-1232.5"/>
<text text-anchor="middle" x="150.12" y="-1215.2" font-family="Arial" font-size="14.00" fill="#cfffac">coverage/lcov&#45;report/base.css</text>
</g>
<!-- coverage/lcov&#45;report/block&#45;navigation.js -->
<g id="node49" class="node">
<title>coverage/lcov&#45;report/block&#45;navigation.js</title>
<path fill="none" stroke="#cfffac" d="M274.83,-1275.5C274.83,-1275.5 25.42,-1275.5 25.42,-1275.5 21.33,-1275.5 17.25,-1271.42 17.25,-1267.33 17.25,-1267.33 17.25,-1259.17 17.25,-1259.17 17.25,-1255.08 21.33,-1251 25.42,-1251 25.42,-1251 274.83,-1251 274.83,-1251 278.92,-1251 283,-1255.08 283,-1259.17 283,-1259.17 283,-1267.33 283,-1267.33 283,-1271.42 278.92,-1275.5 274.83,-1275.5"/>
<text text-anchor="middle" x="150.12" y="-1258.2" font-family="Arial" font-size="14.00" fill="#cfffac">coverage/lcov&#45;report/block&#45;navigation.js</text>
</g>
<!-- coverage/lcov&#45;report/prettify.css -->
<g id="node50" class="node">
<title>coverage/lcov&#45;report/prettify.css</title>
<path fill="none" stroke="#cfffac" d="M251.58,-1318.5C251.58,-1318.5 48.67,-1318.5 48.67,-1318.5 44.58,-1318.5 40.5,-1314.42 40.5,-1310.33 40.5,-1310.33 40.5,-1302.17 40.5,-1302.17 40.5,-1298.08 44.58,-1294 48.67,-1294 48.67,-1294 251.58,-1294 251.58,-1294 255.67,-1294 259.75,-1298.08 259.75,-1302.17 259.75,-1302.17 259.75,-1310.33 259.75,-1310.33 259.75,-1314.42 255.67,-1318.5 251.58,-1318.5"/>
<text text-anchor="middle" x="150.12" y="-1301.2" font-family="Arial" font-size="14.00" fill="#cfffac">coverage/lcov&#45;report/prettify.css</text>
</g>
<!-- coverage/lcov&#45;report/prettify.js -->
<g id="node51" class="node">
<title>coverage/lcov&#45;report/prettify.js</title>
<path fill="none" stroke="#cfffac" d="M245.58,-1361.5C245.58,-1361.5 54.67,-1361.5 54.67,-1361.5 50.58,-1361.5 46.5,-1357.42 46.5,-1353.33 46.5,-1353.33 46.5,-1345.17 46.5,-1345.17 46.5,-1341.08 50.58,-1337 54.67,-1337 54.67,-1337 245.58,-1337 245.58,-1337 249.67,-1337 253.75,-1341.08 253.75,-1345.17 253.75,-1345.17 253.75,-1353.33 253.75,-1353.33 253.75,-1357.42 249.67,-1361.5 245.58,-1361.5"/>
<text text-anchor="middle" x="150.12" y="-1344.2" font-family="Arial" font-size="14.00" fill="#cfffac">coverage/lcov&#45;report/prettify.js</text>
</g>
<!-- coverage/lcov&#45;report/sorter.js -->
<g id="node52" class="node">
<title>coverage/lcov&#45;report/sorter.js</title>
<path fill="none" stroke="#cfffac" d="M242.58,-1404.5C242.58,-1404.5 57.67,-1404.5 57.67,-1404.5 53.58,-1404.5 49.5,-1400.42 49.5,-1396.33 49.5,-1396.33 49.5,-1388.17 49.5,-1388.17 49.5,-1384.08 53.58,-1380 57.67,-1380 57.67,-1380 242.58,-1380 242.58,-1380 246.67,-1380 250.75,-1384.08 250.75,-1388.17 250.75,-1388.17 250.75,-1396.33 250.75,-1396.33 250.75,-1400.42 246.67,-1404.5 242.58,-1404.5"/>
<text text-anchor="middle" x="150.12" y="-1387.2" font-family="Arial" font-size="14.00" fill="#cfffac">coverage/lcov&#45;report/sorter.js</text>
</g>
<!-- instrumentation.node.ts -->
<g id="node53" class="node">
<title>instrumentation.node.ts</title>
<path fill="none" stroke="#cfffac" d="M223.08,-1447.5C223.08,-1447.5 77.17,-1447.5 77.17,-1447.5 73.08,-1447.5 69,-1443.42 69,-1439.33 69,-1439.33 69,-1431.17 69,-1431.17 69,-1427.08 73.08,-1423 77.17,-1423 77.17,-1423 223.08,-1423 223.08,-1423 227.17,-1423 231.25,-1427.08 231.25,-1431.17 231.25,-1431.17 231.25,-1439.33 231.25,-1439.33 231.25,-1443.42 227.17,-1447.5 223.08,-1447.5"/>
<text text-anchor="middle" x="150.12" y="-1430.2" font-family="Arial" font-size="14.00" fill="#cfffac">instrumentation.node.ts</text>
</g>
<!-- public/static/js/chunk_a542cf/script.js -->
<g id="node54" class="node">
<title>public/static/js/chunk_a542cf/script.js</title>
<path fill="none" stroke="#cfffac" d="M266.96,-1490.5C266.96,-1490.5 33.29,-1490.5 33.29,-1490.5 29.21,-1490.5 25.12,-1486.42 25.12,-1482.33 25.12,-1482.33 25.12,-1474.17 25.12,-1474.17 25.12,-1470.08 29.21,-1466 33.29,-1466 33.29,-1466 266.96,-1466 266.96,-1466 271.04,-1466 275.12,-1470.08 275.12,-1474.17 275.12,-1474.17 275.12,-1482.33 275.12,-1482.33 275.12,-1486.42 271.04,-1490.5 266.96,-1490.5"/>
<text text-anchor="middle" x="150.12" y="-1473.2" font-family="Arial" font-size="14.00" fill="#cfffac">public/static/js/chunk_a542cf/script.js</text>
</g>
<!-- util/checkSession/index.ts -->
<g id="node55" class="node">
<title>util/checkSession/index.ts</title>
<path fill="none" stroke="#c6c5fe" d="M530.46,-311.5C530.46,-311.5 368.04,-311.5 368.04,-311.5 363.96,-311.5 359.88,-307.42 359.88,-303.33 359.88,-303.33 359.88,-295.17 359.88,-295.17 359.88,-291.08 363.96,-287 368.04,-287 368.04,-287 530.46,-287 530.46,-287 534.54,-287 538.62,-291.08 538.62,-295.17 538.62,-295.17 538.62,-303.33 538.62,-303.33 538.62,-307.42 534.54,-311.5 530.46,-311.5"/>
<text text-anchor="middle" x="449.25" y="-294.2" font-family="Arial" font-size="14.00" fill="#c6c5fe">util/checkSession/index.ts</text>
</g>
<!-- util/checkSession/index.ts&#45;&gt;app/api/check/route.ts -->
<g id="edge35" class="edge">
<title>util/checkSession/index.ts&#45;&gt;app/api/check/route.ts</title>
<path fill="none" stroke="#757575" d="M522.21,-286.52C550.14,-281.58 582.3,-275.9 611.14,-270.79"/>
<polygon fill="#757575" stroke="#757575" points="611.36,-274.13 620.6,-268.94 610.14,-267.24 611.36,-274.13"/>
</g>
<!-- util/inViewport/index.ts -->
<g id="node56" class="node">
<title>util/inViewport/index.ts</title>
<path fill="none" stroke="#cfffac" d="M219.71,-1533.5C219.71,-1533.5 80.54,-1533.5 80.54,-1533.5 76.46,-1533.5 72.38,-1529.42 72.38,-1525.33 72.38,-1525.33 72.38,-1517.17 72.38,-1517.17 72.38,-1513.08 76.46,-1509 80.54,-1509 80.54,-1509 219.71,-1509 219.71,-1509 223.79,-1509 227.88,-1513.08 227.88,-1517.17 227.88,-1517.17 227.88,-1525.33 227.88,-1525.33 227.88,-1529.42 223.79,-1533.5 219.71,-1533.5"/>
<text text-anchor="middle" x="150.12" y="-1516.2" font-family="Arial" font-size="14.00" fill="#cfffac">util/inViewport/index.ts</text>
</g>
</g>
</svg>
